<?xml version="1.0" encoding="UTF-8"?><svg id="Calque_6" xmlns="http://www.w3.org/2000/svg" viewBox="0 0 677.96 469.83"><defs><style>.cls-1,.cls-2{fill:#fff;}.cls-2{stroke:#fff;stroke-miterlimit:10;stroke-width:3px;}</style></defs><path class="cls-1" d="M498,393.88c1.21,0,2.26.21,3.09.82.82.63,1.25,1.67,1.25,2.73s-.43,2.1-1.25,2.72c-.84.63-1.88.84-3.09.84h-22.95v3.73c0,.63-.5,1.13-1.11,1.13s-1.13-.5-1.13-1.13v-9.71c0-.63.5-1.13,1.13-1.13h24.06ZM475.05,398.73h22.95c.94,0,1.49-.19,1.74-.38.24-.19.36-.36.36-.92s-.12-.75-.36-.94c-.26-.19-.8-.38-1.74-.38h-22.95v2.61Z"/><path class="cls-1" d="M403.37,393.88c1.21,0,2.26.21,3.09.82.82.63,1.25,1.67,1.25,2.73s-.43,2.1-1.25,2.72c-.56.43-1.25.67-2,.77l2.94,3.02c.43.44.41,1.15-.04,1.57v.02c-.44.43-1.14.41-1.59-.03l-4.38-4.51h-20.99v3.73c0,.63-.5,1.13-1.11,1.13s-1.13-.5-1.13-1.13v-9.71c0-.63.5-1.13,1.13-1.13h24.06ZM380.42,398.73h22.95c.94,0,1.49-.19,1.74-.38.24-.19.36-.36.36-.92s-.12-.75-.36-.94c-.26-.19-.8-.38-1.74-.38h-22.95v2.61Z"/><path class="cls-1" d="M314.33,393.88c1.21,0,2.31.24,3.09,1.01.79.77,1.03,1.86,1.03,3.11v3.73c0,1.25-.24,2.34-1.03,3.11-.79.77-1.88,1.01-3.09,1.01h-21.67c-1.21,0-2.31-.24-3.09-1.01-.79-.77-1.03-1.86-1.03-3.11v-3.73c0-1.25.24-2.34,1.03-3.11.79-.77,1.88-1.01,3.09-1.01h21.67ZM291.14,396.48c-.17.19-.36.58-.36,1.52v3.73c0,.94.19,1.33.36,1.52.19.17.58.36,1.52.36h21.67c.94,0,1.33-.19,1.52-.36.17-.19.36-.58.36-1.52v-3.73c0-.94-.19-1.33-.36-1.52-.19-.17-.58-.36-1.52-.36h-21.67c-.94,0-1.33.19-1.52.36Z"/><path class="cls-1" d="M220.71,393.88c1.21,0,2.26.21,3.09.82.82.63,1.25,1.67,1.25,2.73,0,.62-.5,1.11-1.13,1.11s-1.11-.5-1.11-1.11c0-.58-.12-.75-.36-.94-.26-.19-.8-.38-1.74-.38h-21.45c-.94,0-1.33.19-1.52.36-.17.19-.36.58-.36,1.52v3.73c0,.94.19,1.33.36,1.52.19.17.58.36,1.52.36h21.45c.94,0,1.49-.19,1.74-.38.24-.19.36-.36.36-.94,0-.62.5-1.11,1.11-1.11s1.13.5,1.13,1.11c0,1.06-.43,2.1-1.25,2.73-.84.62-1.88.82-3.09.82h-21.45c-1.21,0-2.31-.24-3.09-1.01-.79-.77-1.03-1.86-1.03-3.11v-3.73c0-1.25.24-2.34,1.03-3.11.79-.77,1.88-1.01,3.09-1.01h21.45Z"/><polyline class="cls-2" points="336.71 254.06 348.62 244.25 349.94 187.23 378.68 167.81 371.57 186.61 361.94 192.92 361.24 216.04 390.32 195.2 401.18 168.92 386.99 139.93 389.88 99.2 387.07 88.72 355.9 119.93 356.33 106.21 390.67 69.5 399.87 98.67 398.03 140.19 413.53 169.27 398.81 202.21 360.71 229.27 359.84 248.8 336.71 268.07"/><polyline class="cls-2" points="338.59 254.06 326.68 244.25 325.36 187.23 296.63 167.81 303.73 186.61 313.36 192.92 314.07 216.04 284.99 195.2 274.12 168.92 288.31 139.93 285.42 99.2 288.24 88.72 319.4 119.93 318.97 106.21 284.64 69.5 275.44 98.67 277.28 140.19 261.77 169.27 276.49 202.21 314.59 229.27 315.47 248.8 338.59 268.07"/><path class="cls-1" d="M135.63,324.36l-19.68,39.35h23.44l7.12,14.24h-53.59l35.6-71.19h14.24l35.6,71.19h-15.92l-26.79-53.59Z"/><path class="cls-1" d="M279.36,363.71v14.24h-85.43v-71.19h14.25v56.95h71.18Z"/><path class="cls-1" d="M380.37,334.02l-15.46,15.46h-55.74v28.48h-14.24v-42.72h64.07l7.12-7.12v-7.12h-71.19v-14.24h85.43v27.26Z"/><path class="cls-1" d="M481.38,377.95h-14.24v-28.48h-56.96v28.48h-14.24v-71.19h14.24v28.48h56.96v-28.48h14.24v71.19Z"/><path class="cls-1" d="M539.67,324.36l-19.68,39.35h23.44l7.12,14.24h-53.59l35.6-71.19h14.24l35.6,71.19h-15.92l-26.79-53.59Z"/></svg>