<?xml version="1.0" encoding="UTF-8"?><svg id="Calque_10" xmlns="http://www.w3.org/2000/svg" viewBox="0 0 252.26 260.91"><defs><style>.cls-1{fill:#1d1d1b;stroke:#1d1d1b;stroke-miterlimit:10;stroke-width:3px;}</style></defs><polyline class="cls-1" points="113.54 229.65 125.46 219.84 126.77 162.82 155.51 143.4 148.4 162.21 138.77 168.51 138.07 191.64 167.15 170.79 178.01 144.51 163.82 115.52 166.71 74.79 163.9 64.31 132.73 95.52 133.16 81.8 167.5 45.1 176.7 74.27 174.86 115.78 190.36 144.86 175.65 177.8 137.54 204.86 136.67 224.4 113.54 243.67"/><polyline class="cls-1" points="115.42 229.65 103.51 219.84 102.2 162.82 73.46 143.4 80.56 162.21 90.2 168.51 90.9 191.64 61.82 170.79 50.96 144.51 65.14 115.52 62.25 74.79 65.07 64.31 96.23 95.52 95.8 81.8 61.47 45.1 52.27 74.27 54.11 115.78 38.6 144.86 53.32 177.8 91.42 204.86 92.3 224.4 115.42 243.67"/></svg>