<?xml version="1.0" encoding="UTF-8"?><svg id="Calque_7" xmlns="http://www.w3.org/2000/svg" viewBox="0 0 677.96 416.23"><defs><style>.cls-1,.cls-2{fill:#1d1d1b;}.cls-2{stroke:#1d1d1b;stroke-miterlimit:10;stroke-width:3px;}</style></defs><path d="M134.69,292.02l-19.68,39.35h23.44l7.12,14.24h-53.59l35.6-71.19h14.24l35.6,71.19h-15.92l-26.79-53.59Z"/><path d="M278.42,331.38v14.24h-85.43v-71.19h14.25v56.95h71.18Z"/><path d="M379.43,301.68l-15.46,15.46h-55.74v28.48h-14.24v-42.72h64.07l7.12-7.12v-7.12h-71.19v-14.24h85.43v27.26Z"/><path d="M480.44,345.62h-14.24v-28.48h-56.96v28.48h-14.24v-71.19h14.24v28.48h56.96v-28.48h14.24v71.19Z"/><path d="M538.73,292.02l-19.68,39.35h23.44l7.12,14.24h-53.59l35.6-71.19h14.24l35.6,71.19h-15.92l-26.79-53.59Z"/><polyline class="cls-2" points="335.77 221.73 347.68 211.91 349 154.89 377.74 135.47 370.63 154.28 361 160.59 360.3 183.71 389.38 162.86 400.24 136.59 386.05 107.59 388.94 66.86 386.13 56.38 354.96 87.6 355.39 73.87 389.73 37.17 398.93 66.34 397.09 107.86 412.59 136.94 397.87 169.87 359.77 196.94 358.9 216.47 335.77 235.74"/><polyline class="cls-2" points="337.65 221.73 325.74 211.91 324.43 154.89 295.69 135.47 302.79 154.28 312.43 160.59 313.13 183.71 284.05 162.86 273.18 136.59 287.37 107.59 284.48 66.86 287.3 56.38 318.46 87.6 318.03 73.87 283.7 37.17 274.5 66.34 276.34 107.86 260.83 136.94 275.55 169.87 313.65 196.94 314.53 216.47 337.65 235.74"/><path class="cls-1" d="M219.77,361.55c1.21,0,2.26.21,3.09.82.82.63,1.25,1.67,1.25,2.73,0,.62-.5,1.11-1.13,1.11s-1.11-.5-1.11-1.11c0-.58-.12-.75-.36-.94-.26-.19-.8-.38-1.74-.38h-21.45c-.94,0-1.33.19-1.52.36-.17.19-.36.58-.36,1.52v3.73c0,.94.19,1.33.36,1.52.19.17.58.36,1.52.36h21.45c.94,0,1.49-.19,1.74-.38.24-.19.36-.36.36-.94,0-.62.5-1.11,1.11-1.11s1.13.5,1.13,1.11c0,1.06-.43,2.1-1.25,2.73-.84.62-1.88.82-3.09.82h-21.45c-1.21,0-2.31-.24-3.09-1.01-.79-.77-1.03-1.86-1.03-3.11v-3.73c0-1.25.24-2.34,1.03-3.11.79-.77,1.88-1.01,3.09-1.01h21.45Z"/><path class="cls-1" d="M313.39,361.55c1.21,0,2.31.24,3.09,1.01.79.77,1.03,1.86,1.03,3.11v3.73c0,1.25-.24,2.34-1.03,3.11-.79.77-1.88,1.01-3.09,1.01h-21.67c-1.21,0-2.31-.24-3.09-1.01-.79-.77-1.03-1.86-1.03-3.11v-3.73c0-1.25.24-2.34,1.03-3.11.79-.77,1.88-1.01,3.09-1.01h21.67ZM290.2,364.14c-.17.19-.36.58-.36,1.52v3.73c0,.94.19,1.33.36,1.52.19.17.58.36,1.52.36h21.67c.94,0,1.33-.19,1.52-.36.17-.19.36-.58.36-1.52v-3.73c0-.94-.19-1.33-.36-1.52-.19-.17-.58-.36-1.52-.36h-21.67c-.94,0-1.33.19-1.52.36Z"/><path class="cls-1" d="M402.43,361.55c1.21,0,2.26.21,3.09.82.82.63,1.25,1.67,1.25,2.73s-.43,2.1-1.25,2.72c-.56.43-1.25.67-2,.77l2.94,3.03c.43.44.41,1.14-.04,1.57v.02c-.44.43-1.14.41-1.59-.03l-4.38-4.51h-20.99v3.73c0,.63-.5,1.13-1.11,1.13s-1.13-.5-1.13-1.13v-9.71c0-.63.5-1.13,1.13-1.13h24.06ZM379.48,366.4h22.95c.94,0,1.49-.19,1.74-.38.24-.19.36-.36.36-.92s-.12-.75-.36-.94c-.26-.19-.8-.38-1.74-.38h-22.95v2.61Z"/><path class="cls-1" d="M497.06,361.55c1.21,0,2.26.21,3.09.82.82.63,1.25,1.67,1.25,2.73s-.43,2.1-1.25,2.72c-.84.63-1.88.84-3.09.84h-22.95v3.73c0,.63-.5,1.13-1.11,1.13s-1.13-.5-1.13-1.13v-9.71c0-.63.5-1.13,1.13-1.13h24.06ZM474.11,366.4h22.95c.94,0,1.49-.19,1.74-.38.24-.19.36-.36.36-.92s-.12-.75-.36-.94c-.26-.19-.8-.38-1.74-.38h-22.95v2.61Z"/></svg>