<?xml version="1.0" encoding="UTF-8"?><svg id="Calque_8" xmlns="http://www.w3.org/2000/svg" viewBox="0 0 273.6 277.49"><defs><style>.cls-1{fill:#fff;stroke:#fff;stroke-miterlimit:10;stroke-width:3px;}</style></defs><polyline class="cls-1" points="139.16 224.01 151.08 214.2 152.39 157.18 181.13 137.76 174.03 156.57 164.39 162.88 163.69 186 192.77 165.15 203.63 138.88 189.44 109.88 192.33 69.15 189.52 58.67 158.36 89.89 158.78 76.16 193.12 39.46 202.32 68.63 200.48 110.15 215.98 139.23 201.27 172.16 163.16 199.23 162.29 218.76 139.16 238.03"/><polyline class="cls-1" points="141.04 224.01 129.13 214.2 127.82 157.18 99.08 137.76 106.18 156.57 115.82 162.88 116.52 186 87.44 165.15 76.58 138.88 90.77 109.88 87.88 69.15 90.69 58.67 121.85 89.89 121.42 76.16 87.09 39.46 77.89 68.63 79.73 110.15 64.23 139.23 78.94 172.16 117.04 199.23 117.92 218.76 141.04 238.03"/></svg>