<?xml version="1.0" encoding="UTF-8"?><svg id="Calque_9" xmlns="http://www.w3.org/2000/svg" viewBox="0 0 741.02 209.01"><defs><style>.cls-1{fill:#fff;}</style></defs><path class="cls-1" d="M175.6,77.93l-19.68,39.35h23.44l7.12,14.24h-53.59l35.6-71.19h14.24l35.6,71.19h-15.92l-26.79-53.59Z"/><path class="cls-1" d="M319.32,117.29v14.24h-85.43V60.33h14.25v56.95h71.18Z"/><path class="cls-1" d="M420.33,87.59l-15.46,15.46h-55.74v28.48h-14.24v-42.72h64.07l7.12-7.12v-7.12h-71.19v-14.24h85.43v27.26Z"/><path class="cls-1" d="M521.34,131.53h-14.24v-28.48h-56.96v28.48h-14.24V60.33h14.24v28.48h56.96v-28.48h14.24v71.19Z"/><path class="cls-1" d="M579.64,77.93l-19.68,39.35h23.44l7.12,14.24h-53.59l35.6-71.19h14.24l35.6,71.19h-15.92l-26.79-53.59Z"/><path class="cls-1" d="M260.67,147.46c1.21,0,2.26.21,3.09.82.82.63,1.25,1.67,1.25,2.73,0,.62-.5,1.11-1.13,1.11s-1.11-.5-1.11-1.11c0-.58-.12-.75-.36-.94-.26-.19-.8-.38-1.74-.38h-21.45c-.94,0-1.33.19-1.52.36-.17.19-.36.58-.36,1.52v3.73c0,.94.19,1.33.36,1.52.19.17.58.36,1.52.36h21.45c.94,0,1.49-.19,1.74-.38.24-.19.36-.36.36-.94,0-.62.5-1.11,1.11-1.11s1.13.5,1.13,1.11c0,1.06-.43,2.1-1.25,2.73-.84.62-1.88.82-3.09.82h-21.45c-1.21,0-2.31-.24-3.09-1.01-.79-.77-1.03-1.86-1.03-3.11v-3.73c0-1.25.24-2.34,1.03-3.11.79-.77,1.88-1.01,3.09-1.01h21.45Z"/><path class="cls-1" d="M354.3,147.46c1.21,0,2.31.24,3.09,1.01.79.77,1.03,1.86,1.03,3.11v3.73c0,1.25-.24,2.34-1.03,3.11-.79.77-1.88,1.01-3.09,1.01h-21.67c-1.21,0-2.31-.24-3.09-1.01-.79-.77-1.03-1.86-1.03-3.11v-3.73c0-1.25.24-2.34,1.03-3.11.79-.77,1.88-1.01,3.09-1.01h21.67ZM331.11,150.05c-.17.19-.36.58-.36,1.52v3.73c0,.94.19,1.33.36,1.52.19.17.58.36,1.52.36h21.67c.94,0,1.33-.19,1.52-.36.17-.19.36-.58.36-1.52v-3.73c0-.94-.19-1.33-.36-1.52-.19-.17-.58-.36-1.52-.36h-21.67c-.94,0-1.33.19-1.52.36Z"/><path class="cls-1" d="M443.34,147.46c1.21,0,2.26.21,3.09.82.82.63,1.25,1.67,1.25,2.73s-.43,2.1-1.25,2.72c-.56.43-1.25.67-2,.77l2.94,3.02c.43.44.41,1.15-.04,1.57v.02c-.44.43-1.14.41-1.59-.03l-4.38-4.51h-20.99v3.73c0,.63-.5,1.13-1.11,1.13s-1.13-.5-1.13-1.13v-9.71c0-.63.5-1.13,1.13-1.13h24.06ZM420.38,152.31h22.95c.94,0,1.49-.19,1.74-.38.24-.19.36-.36.36-.92s-.12-.75-.36-.94c-.26-.19-.8-.38-1.74-.38h-22.95v2.61Z"/><path class="cls-1" d="M537.97,147.46c1.21,0,2.26.21,3.09.82.82.63,1.25,1.67,1.25,2.73s-.43,2.1-1.25,2.72c-.84.63-1.88.84-3.09.84h-22.95v3.73c0,.63-.5,1.13-1.11,1.13s-1.13-.5-1.13-1.13v-9.71c0-.63.5-1.13,1.13-1.13h24.06ZM515.01,152.31h22.95c.94,0,1.49-.19,1.74-.38.24-.19.36-.36.36-.92s-.12-.75-.36-.94c-.26-.19-.8-.38-1.74-.38h-22.95v2.61Z"/></svg>